<?xml version="1.0" encoding="UTF-8" standalone="no"?>
<!-- Created with Inkscape (http://www.inkscape.org/) -->

<svg
   width="50mm"
   height="50mm"
   viewBox="0 0 50 50"
   version="1.1"
   id="svg1"
   xml:space="preserve"
   xmlns="http://www.w3.org/2000/svg"
   xmlns:svg="http://www.w3.org/2000/svg"><defs
     id="defs1" /><g
     id="layer2"
     transform="translate(-59.996948,-1.8433758)"
     style="display:none"><path
       style="opacity:1;fill:none;fill-opacity:1;stroke:#000000;stroke-width:0.628999;stroke-opacity:1"
       d="M 85.014465,6.4605927 62.994627,32.539697 84.995262,46.53372 107.22852,32.540523 Z"
       id="path28" /><path
       style="opacity:1;fill:#000000;fill-opacity:1;stroke:#000000;stroke-width:0.628999;stroke-opacity:1"
       d="m 84.955694,6.6476742 0.03957,39.9256148"
       id="path29" /></g><g
     id="layer1"
     style="display:none"><path
       style="fill:none;fill-opacity:1;stroke:#000000;stroke-width:0.628999;stroke-opacity:1"
       id="path21"
       d="m 24.897072,2.5212231 20.96105,12.1018679 -1e-6,24.203736 -20.96105,12.101867 -20.9610492,-12.101868 7e-7,-24.203736 z"
       transform="matrix(0.92878336,0,0,0.94365692,1.746978,0.15153729)" /><path
       style="opacity:1;fill:none;fill-opacity:1;stroke:#000000;stroke-width:0.628999;stroke-opacity:1"
       d="M 44.158312,14.151288 25.249146,26.064064 5.39452,14.214319"
       id="path22" /><path
       style="opacity:1;fill:#80df6a;fill-opacity:1;stroke:#000000;stroke-width:0.628999;stroke-opacity:1"
       d="M 24.870963,48.31385 25.123085,26.064064"
       id="path23" /></g><g
     id="layer3"
     transform="translate(-119.97469)"
     style="display:none"><path
       style="opacity:1;fill:none;fill-opacity:1;stroke:#000000;stroke-width:0.628999;stroke-opacity:1"
       id="path30"
       d="M 145.29916,3.798671 165.08497,15.587537 164.76841,38.61698 144.66605,49.857556 124.88024,38.06869 125.1968,15.039247 Z"
       transform="rotate(119.30516,145.34507,26.163633)" /><path
       style="opacity:1;fill:none;fill-opacity:1;stroke:#000000;stroke-width:0.628999;stroke-opacity:1"
       d="M 164.50814,14.207253 144.86598,48.192233 125.39343,14.196547 Z"
       id="path31" /></g><g
     id="layer4"
     transform="translate(-180.12032,-0.31655592)"
     style="display:none"><path
       style="opacity:1;fill:none;fill-opacity:1;stroke:#000000;stroke-width:0.628999;stroke-opacity:1"
       d="m 204.86849,2.6301063 -19.92165,17.4034697 0.056,7.890318 19.92165,19.809738 20.1455,-19.865697 -0.056,-7.7784 z"
       id="path35" /><path
       style="opacity:1;fill:none;fill-opacity:1;stroke:#000000;stroke-width:0.628999;stroke-opacity:1"
       d="m 204.86849,3.1337437 -12.42305,21.9921653 12.36709,8.002239 12.70286,-8.058199 z"
       id="path37" /><path
       style="opacity:1;fill:none;fill-opacity:1;stroke:#000000;stroke-width:0.628999;stroke-opacity:1"
       d="M 224.95803,27.811976 217.57135,25.01399"
       id="path38" /><path
       style="opacity:1;fill:none;fill-opacity:1;stroke:#000000;stroke-width:0.628999;stroke-opacity:1"
       d="m 204.81253,47.509792 0.056,-14.437603"
       id="path39" /><path
       style="opacity:1;fill:none;fill-opacity:1;stroke:#000000;stroke-width:0.628999;stroke-opacity:1"
       d="m 184.83492,27.979854 7.66648,-2.853945"
       id="path40" /></g><g
     id="layer5"
     transform="translate(-239.63283)"
     style="display:none"><path
       style="opacity:1;fill:none;fill-opacity:1;stroke:#000000;stroke-width:0.628999;stroke-opacity:1"
       id="path41"
       d="m 264.80135,47.118076 -12.93819,-4.276601 -7.95349,-11.06472 0.0692,-13.626492 8.06541,-10.9834061 12.98094,-4.1450332 12.93819,4.2766017 7.95349,11.0647206 -0.0692,13.626491 -8.06541,10.983406 z" /><path
       style="opacity:1;fill:none;fill-opacity:1;stroke:#000000;stroke-width:0.628999;stroke-opacity:1"
       id="path42"
       d="m 264.91327,11.5277 12.87944,9.357465 -4.91951,15.140695 -15.91987,0 -4.91951,-15.140696 z" /><path
       style="opacity:1;fill:none;fill-opacity:1;stroke:#000000;stroke-width:0.628999;stroke-opacity:1"
       d="m 251.87465,20.872971 -7.66648,-2.686066"
       id="path43" /><path
       style="opacity:1;fill:none;fill-opacity:1;stroke:#000000;stroke-width:0.628999;stroke-opacity:1"
       d="m 264.91327,11.5277 0.0559,-8.3939563"
       id="path44" /><path
       style="opacity:1;fill:none;fill-opacity:1;stroke:#000000;stroke-width:0.628999;stroke-opacity:1"
       d="m 277.784,20.761052 8.0582,-2.462227"
       id="path45" /><path
       style="opacity:1;fill:none;fill-opacity:1;stroke:#000000;stroke-width:0.628999;stroke-opacity:1"
       d="m 272.85955,36.094013 5.09233,6.883043"
       id="path46" /><path
       style="opacity:1;fill:none;fill-opacity:1;stroke:#000000;stroke-width:0.628999;stroke-opacity:1"
       d="m 256.91102,36.094013 -4.98041,6.771124"
       id="path47" /></g><g
     id="layer6"
     transform="translate(-300.09501,0.31655592)"
     style="display:inline"><path
       style="opacity:1;fill:none;fill-opacity:1;stroke:#000000;stroke-width:0.628999;stroke-opacity:1"
       id="path48"
       d="m 324.86552,2.215891 19.6989,11.46455 -0.0791,22.792026 -19.77804,11.327477 -19.69891,-11.46455 0.0791,-22.792027 z"
       transform="rotate(-0.29495437,324.8983,-18.47336)" /><path
       style="opacity:1;fill:none;fill-opacity:1;stroke:#000000;stroke-width:0.628999;stroke-opacity:1"
       id="path49"
       d="m 325.02378,40.215497 -12.6035,-21.555749 24.96958,-0.137073 z"
       transform="matrix(0.45625705,0.80018885,-0.80018885,0.45625705,197.32998,-245.86572)" /><path
       style="opacity:1;fill:none;fill-opacity:1;stroke:#000000;stroke-width:0.628999;stroke-opacity:1"
       d="m 305.26021,36.37381 8.17012,-3.86122 -7.97227,-18.706933 19.49996,-1.214723"
       id="path52" /><path
       style="opacity:1;fill:none;fill-opacity:1;stroke:#000000;stroke-width:0.628999;stroke-opacity:1"
       d="m 324.94163,2.2547786 0.039,10.3457574 19.61249,1.188732 -8.33121,18.723322"
       id="path53" /><path
       style="opacity:1;fill:none;fill-opacity:1;stroke:#000000;stroke-width:0.628999;stroke-opacity:1"
       d="M 344.71181,36.37381 336.31785,32.51259 325.01398,47.677673 313.43033,32.68047"
       id="path54" /></g></svg>
